<svg xmlns="http://www.w3.org/2000/svg" xmlns:xlink="http://www.w3.org/1999/xlink" viewBox="0 0 59.93 66.68"><defs><style>.cls-1{fill:#168ca9;}.cls-2{fill:url(#Unbenannter_Verlauf_9);}</style><linearGradient id="Unbenannter_Verlauf_9" x1="0.04" y1="32.05" x2="59.89" y2="32.05" gradientUnits="userSpaceOnUse"><stop offset="0.2" stop-color="#168ca9"/><stop offset="0.4" stop-color="#168ca9" stop-opacity="0"/><stop offset="0.58" stop-color="#168ca9" stop-opacity="0"/><stop offset="0.8" stop-color="#168ca9"/></linearGradient></defs><g id="Ebene_2" data-name="Ebene 2"><g id="N"><path class="cls-1" d="M2.81,58.39h0c-1.62,0-3.19-1.81-2.73-3.16L18,1.93A2.92,2.92,0,0,1,21,0h0a6.51,6.51,0,0,1,5.65,4.08L41.71,43.61,53.64,8.15a3.7,3.7,0,0,1,3.73-2.44h0c1.51,0,2.9,1.65,2.48,2.87,0,0-18.4,54.84-18.87,56.12a3,3,0,0,1-3,2h-.24a6.37,6.37,0,0,1-5.56-4.2l-15-39.15L6.72,55.81A3.85,3.85,0,0,1,2.81,58.39Z"/><path class="cls-2" d="M59.89,7.81a2.77,2.77,0,0,0-2.52-2.1,4.17,4.17,0,0,0-2.78,1L0,56.1a3.06,3.06,0,0,0,2.77,2.29,4.13,4.13,0,0,0,3-1.09L59.89,7.82Z"/></g></g></svg>